<svg width="25" height="25" viewBox="0 0 25 25" fill="none" xmlns="http://www.w3.org/2000/svg">
    <path fill-rule="evenodd" clip-rule="evenodd" d="M12.625 0.75C6.07079 0.75 0.75 6.07079 0.75 12.625C0.75 19.1792 6.07079 24.5 12.625 24.5C19.1792 24.5 24.5 19.1792 24.5 12.625C24.5 6.07079 19.1792 0.75 12.625 0.75ZM13.4167 12.3471C13.4167 11.1256 13.4167 6.29167 13.4167 6.29167C13.4167 5.85467 13.062 5.5 12.625 5.5C12.188 5.5 11.8333 5.85467 11.8333 6.29167V12.3471C11.8333 12.7065 11.956 13.0557 12.1801 13.3367C12.8427 14.164 15.1734 17.0781 15.1734 17.0781C15.4465 17.4193 15.9453 17.4748 16.2865 17.2016C16.6277 16.9285 16.6831 16.4298 16.41 16.0885L13.4167 12.3471Z" fill="#F37021"/>
</svg>
