<svg width="543" height="134" viewBox="0 0 543 134" fill="none" xmlns="http://www.w3.org/2000/svg">
    <path d="M162.623 55.2362V10.1246H167.585V31.5204L190.914 10.1246H197.423L172.934 32.2293L197.939 55.2362H190.979L167.585 33.5826V55.2362H162.623Z" fill="#151515"/>
    <path d="M201.495 55.2362V22.9492H206.264V55.2362H201.495ZM203.88 16.7625C203.02 16.7625 202.269 16.4402 201.624 15.7958C200.98 15.1513 200.657 14.3995 200.657 13.5402C200.657 12.638 200.98 11.8861 201.624 11.2846C202.269 10.6402 203.02 10.318 203.88 10.318C204.782 10.318 205.534 10.6402 206.135 11.2846C206.78 11.8861 207.102 12.638 207.102 13.5402C207.102 14.3995 206.78 15.1513 206.135 15.7958C205.534 16.4402 204.782 16.7625 203.88 16.7625Z" fill="#151515"/>
    <path d="M227.093 55.8807C224.3 55.8807 222.152 55.2147 220.648 53.8829C219.144 52.551 218.392 50.6177 218.392 48.0828V27.0092H211.432V22.9492H218.392V14.7647L223.097 13.5402V22.9492H232.828V27.0092H223.097V46.8584C223.097 48.5769 223.484 49.8228 224.257 50.5962C225.03 51.3265 226.298 51.6917 228.059 51.6917C228.961 51.6917 229.756 51.6273 230.444 51.4984C231.174 51.3695 231.947 51.1547 232.764 50.854V55.0429C231.947 55.3436 231.024 55.5584 229.993 55.6873C229.004 55.8162 228.038 55.8807 227.093 55.8807Z" fill="#151515"/>
    <path d="M252.256 55.8162C249.206 55.8162 246.435 55.0858 243.943 53.6251C241.451 52.1214 239.475 50.1021 238.014 47.5672C236.553 45.0324 235.823 42.1968 235.823 39.0605C235.823 35.9242 236.553 33.1101 238.014 30.6182C239.475 28.0833 241.451 26.0641 243.943 24.5603C246.435 23.0566 249.206 22.3047 252.256 22.3047C254.619 22.3047 256.896 22.7559 259.088 23.6581C261.279 24.5174 263.212 25.7633 264.888 27.3959L261.859 30.876C260.57 29.5011 259.088 28.47 257.412 27.7826C255.779 27.0522 254.082 26.687 252.321 26.687C250.13 26.687 248.132 27.2455 246.327 28.3626C244.566 29.4367 243.148 30.9189 242.074 32.8093C241.043 34.6567 240.527 36.7405 240.527 39.0605C240.527 41.3805 241.043 43.4857 242.074 45.3761C243.148 47.2665 244.587 48.7702 246.392 49.8873C248.196 50.9614 250.194 51.4984 252.385 51.4984C254.147 51.4984 255.801 51.1547 257.348 50.4673C258.937 49.7799 260.419 48.7702 261.794 47.4384L264.759 50.6606C263.04 52.2932 261.107 53.5606 258.959 54.4629C256.811 55.3651 254.576 55.8162 252.256 55.8162Z" fill="#151515"/>
    <path d="M270.346 55.2362V10.1246L275.115 9.02905V26.7515C277.65 23.787 281.044 22.3047 285.297 22.3047C287.746 22.3047 289.894 22.8418 291.742 23.9159C293.632 24.947 295.093 26.4078 296.124 28.2981C297.198 30.1456 297.735 32.3152 297.735 34.8071V55.2362H293.031V35.7738C293.031 32.8952 292.214 30.6397 290.582 29.007C288.992 27.3315 286.801 26.4937 284.008 26.4937C282.075 26.4937 280.356 26.9233 278.853 27.7826C277.349 28.6419 276.103 29.8663 275.115 31.456V55.2362H270.346Z" fill="#151515"/>
    <path d="M320.86 55.8162C317.766 55.8162 314.952 55.0858 312.417 53.6251C309.926 52.1214 307.928 50.1021 306.424 47.5672C304.963 45.0324 304.233 42.1968 304.233 39.0605C304.233 35.9671 304.942 33.1745 306.36 30.6826C307.777 28.1478 309.689 26.15 312.095 24.6892C314.501 23.1855 317.186 22.4336 320.151 22.4336C323.029 22.4336 325.607 23.1855 327.884 24.6892C330.204 26.15 332.03 28.1478 333.362 30.6826C334.737 33.1745 335.424 35.9671 335.424 39.0605V40.5427H308.937C309.195 42.6479 309.861 44.5383 310.935 46.2139C312.052 47.8895 313.492 49.2213 315.253 50.2095C317.015 51.1547 318.948 51.6273 321.053 51.6273C322.729 51.6273 324.361 51.3695 325.951 50.854C327.541 50.3384 328.872 49.608 329.947 48.6628L332.911 51.8206C331.107 53.1525 329.216 54.1621 327.24 54.8495C325.306 55.494 323.18 55.8162 320.86 55.8162ZM309.066 36.7405H330.655C330.398 34.8071 329.753 33.0886 328.722 31.5849C327.734 30.0382 326.488 28.8352 324.984 27.9759C323.481 27.0737 321.826 26.6226 320.022 26.6226C318.175 26.6226 316.477 27.0522 314.931 27.9115C313.384 28.7707 312.095 29.9737 311.064 31.5204C310.033 33.0241 309.367 34.7641 309.066 36.7405Z" fill="#151515"/>
    <path d="M342.091 55.2362V22.9492H346.86V26.7515C349.395 23.787 352.789 22.3047 357.043 22.3047C359.492 22.3047 361.64 22.8418 363.487 23.9159C365.378 24.947 366.838 26.4078 367.869 28.2981C368.944 30.1456 369.481 32.3152 369.481 34.8071V55.2362H364.776V35.7738C364.776 32.8952 363.96 30.6397 362.327 29.007C360.738 27.3315 358.546 26.4937 355.754 26.4937C353.82 26.4937 352.102 26.9233 350.598 27.7826C349.094 28.6419 347.849 29.8663 346.86 31.456V55.2362H342.091Z" fill="#151515"/>
    <path d="M183.89 120.39C180.624 120.39 177.574 119.81 174.738 118.65C171.903 117.447 169.411 115.793 167.263 113.688C165.115 111.54 163.439 109.069 162.236 106.277C161.076 103.441 160.496 100.391 160.496 97.1256C160.496 93.8603 161.076 90.8314 162.236 88.0388C163.439 85.2032 165.115 82.7328 167.263 80.6276C169.411 78.4794 171.903 76.8253 174.738 75.6653C177.574 74.4623 180.624 73.8609 183.89 73.8609C186.253 73.8609 188.508 74.1616 190.656 74.7631C192.848 75.3216 194.867 76.1594 196.714 77.2765C198.605 78.3505 200.28 79.6824 201.741 81.2721L198.454 84.7521C196.693 82.7328 194.523 81.1861 191.945 80.112C189.368 78.995 186.682 78.4365 183.89 78.4365C181.269 78.4365 178.841 78.9091 176.607 79.8543C174.373 80.7995 172.418 82.1313 170.743 83.8499C169.11 85.5254 167.821 87.5017 166.876 89.7788C165.974 92.0129 165.523 94.4618 165.523 97.1256C165.523 99.7463 165.974 102.195 166.876 104.472C167.821 106.749 169.132 108.747 170.807 110.466C172.483 112.141 174.438 113.452 176.672 114.397C178.949 115.342 181.398 115.815 184.019 115.815C186.811 115.815 189.475 115.278 192.01 114.204C194.545 113.086 196.671 111.561 198.39 109.628L201.612 112.979C200.108 114.526 198.411 115.858 196.521 116.975C194.673 118.092 192.676 118.951 190.528 119.552C188.379 120.111 186.167 120.39 183.89 120.39Z" fill="#151515"/>
    <path d="M218.412 120.261C216.049 120.261 213.965 119.853 212.16 119.037C210.399 118.221 209.003 117.082 207.972 115.621C206.983 114.161 206.489 112.464 206.489 110.53C206.489 107.48 207.649 105.074 209.969 103.312C212.289 101.551 215.426 100.67 219.378 100.67C222.858 100.67 226.016 101.4 228.852 102.861V98.6078C228.852 96.03 228.121 94.0966 226.661 92.8077C225.2 91.4759 223.073 90.8099 220.281 90.8099C218.691 90.8099 217.08 91.0462 215.447 91.5188C213.858 91.9485 212.096 92.6574 210.163 93.6455L208.358 89.9721C210.678 88.8551 212.826 88.0388 214.803 87.5232C216.779 87.0077 218.755 86.7499 220.732 86.7499C224.813 86.7499 227.95 87.7166 230.141 89.6499C232.375 91.5833 233.492 94.3544 233.492 97.9633V119.681H228.852V116.524C227.391 117.769 225.78 118.715 224.018 119.359C222.3 119.961 220.431 120.261 218.412 120.261ZM211.065 110.401C211.065 112.206 211.817 113.688 213.32 114.848C214.867 115.965 216.843 116.524 219.249 116.524C221.183 116.524 222.944 116.223 224.534 115.621C226.124 115.02 227.563 114.075 228.852 112.786V106.728C227.52 105.826 226.102 105.181 224.598 104.795C223.095 104.365 221.398 104.15 219.507 104.15C216.929 104.15 214.867 104.73 213.32 105.89C211.817 107.007 211.065 108.511 211.065 110.401Z" fill="#151515"/>
    <path d="M241.459 119.681V74.5698L246.228 73.4742V90.8099C248.977 88.1892 252.436 86.8788 256.603 86.8788C259.654 86.8788 262.403 87.6306 264.852 89.1344C267.301 90.5951 269.235 92.5714 270.652 95.0633C272.113 97.5552 272.844 100.369 272.844 103.506C272.844 106.642 272.113 109.478 270.652 112.012C269.235 114.504 267.301 116.502 264.852 118.006C262.403 119.467 259.632 120.197 256.539 120.197C254.649 120.197 252.801 119.875 250.997 119.23C249.235 118.586 247.624 117.662 246.163 116.459V119.681H241.459ZM256.152 116.008C258.429 116.008 260.47 115.471 262.275 114.397C264.079 113.28 265.497 111.798 266.528 109.95C267.602 108.06 268.139 105.933 268.139 103.57C268.139 101.207 267.602 99.0804 266.528 97.19C265.497 95.2996 264.079 93.8174 262.275 92.7433C260.47 91.6262 258.429 91.0677 256.152 91.0677C254.133 91.0677 252.243 91.4759 250.481 92.2922C248.763 93.0655 247.345 94.1611 246.228 95.5789V111.561C247.345 112.936 248.784 114.032 250.546 114.848C252.307 115.621 254.176 116.008 256.152 116.008Z" fill="#151515"/>
    <path d="M279.471 119.681V87.3943H284.24V119.681H279.471ZM281.856 81.2076C280.997 81.2076 280.245 80.8854 279.6 80.2409C278.956 79.5965 278.634 78.8446 278.634 77.9854C278.634 77.0831 278.956 76.3313 279.6 75.7298C280.245 75.0853 280.997 74.7631 281.856 74.7631C282.758 74.7631 283.51 75.0853 284.111 75.7298C284.756 76.3313 285.078 77.0831 285.078 77.9854C285.078 78.8446 284.756 79.5965 284.111 80.2409C283.51 80.8854 282.758 81.2076 281.856 81.2076Z" fill="#151515"/>
    <path d="M292.373 119.681V87.3943H297.142V91.1966C299.677 88.2321 303.071 86.7499 307.324 86.7499C309.773 86.7499 311.921 87.2869 313.769 88.361C315.659 89.3921 317.12 90.8529 318.151 92.7433C319.225 94.5907 319.762 96.7604 319.762 99.2523V119.681H315.058V100.219C315.058 97.3404 314.241 95.0848 312.609 93.4522C311.019 91.7766 308.828 90.9388 306.035 90.9388C304.102 90.9388 302.383 91.3685 300.88 92.2277C299.376 93.087 298.13 94.3115 297.142 95.9011V119.681H292.373Z" fill="#151515"/>
    <path d="M342.887 120.261C339.794 120.261 336.979 119.531 334.445 118.07C331.953 116.567 329.955 114.547 328.451 112.012C326.99 109.478 326.26 106.642 326.26 103.506C326.26 100.412 326.969 97.6196 328.387 95.1278C329.805 92.5929 331.716 90.5951 334.122 89.1344C336.528 87.6306 339.214 86.8788 342.178 86.8788C345.057 86.8788 347.634 87.6306 349.911 89.1344C352.231 90.5951 354.057 92.5929 355.389 95.1278C356.764 97.6196 357.452 100.412 357.452 103.506V104.988H330.965C331.222 107.093 331.888 108.983 332.962 110.659C334.079 112.335 335.519 113.666 337.28 114.655C339.042 115.6 340.975 116.072 343.08 116.072C344.756 116.072 346.388 115.815 347.978 115.299C349.568 114.784 350.9 114.053 351.974 113.108L354.938 116.266C353.134 117.598 351.243 118.607 349.267 119.295C347.334 119.939 345.207 120.261 342.887 120.261ZM331.093 101.186H352.683C352.425 99.2523 351.78 97.5337 350.749 96.03C349.761 94.4833 348.515 93.2803 347.011 92.4211C345.508 91.5188 343.854 91.0677 342.049 91.0677C340.202 91.0677 338.505 91.4973 336.958 92.3566C335.411 93.2159 334.122 94.4189 333.091 95.9655C332.06 97.4693 331.394 99.2093 331.093 101.186Z" fill="#151515"/>
    <path d="M375.87 120.326C373.078 120.326 370.929 119.66 369.426 118.328C367.922 116.996 367.17 115.063 367.17 112.528V91.4544H360.21V87.3943H367.17V79.2098L371.875 77.9854V87.3943H381.606V91.4544H371.875V111.303C371.875 113.022 372.261 114.268 373.035 115.041C373.808 115.772 375.075 116.137 376.837 116.137C377.739 116.137 378.534 116.072 379.221 115.944C379.952 115.815 380.725 115.6 381.541 115.299V119.488C380.725 119.789 379.801 120.004 378.77 120.132C377.782 120.261 376.815 120.326 375.87 120.326Z" fill="#151515"/>
    <path d="M422.662 120.39C419.397 120.39 416.347 119.789 413.511 118.586C410.719 117.383 408.248 115.729 406.1 113.624C403.995 111.475 402.341 109.005 401.138 106.212C399.935 103.377 399.333 100.348 399.333 97.1256C399.333 93.9033 399.913 90.8959 401.073 88.1032C402.276 85.2676 403.93 82.7973 406.036 80.692C408.184 78.5439 410.654 76.8683 413.447 75.6653C416.282 74.4623 419.333 73.8609 422.598 73.8609C426.078 73.8609 429.365 74.5053 432.458 75.7942C435.551 77.0831 438.194 78.9091 440.385 81.2721L437.034 84.6876C435.315 82.7113 433.167 81.1861 430.589 80.112C428.054 78.995 425.391 78.4365 422.598 78.4365C420.02 78.4365 417.614 78.9091 415.38 79.8543C413.189 80.7995 411.256 82.1313 409.58 83.8499C407.947 85.5254 406.659 87.5017 405.713 89.7788C404.811 92.0129 404.36 94.4618 404.36 97.1256C404.36 99.7463 404.811 102.195 405.713 104.472C406.659 106.749 407.947 108.747 409.58 110.466C411.256 112.141 413.189 113.452 415.38 114.397C417.614 115.342 420.02 115.815 422.598 115.815C425.648 115.815 428.398 115.149 430.847 113.817C433.339 112.485 435.337 110.659 436.84 108.339C438.387 106.019 439.289 103.398 439.547 100.477H423.371V96.0944H444.574V98.0922C444.574 101.229 444.015 104.15 442.898 106.857C441.781 109.563 440.234 111.926 438.258 113.946C436.282 115.965 433.962 117.555 431.298 118.715C428.634 119.832 425.756 120.39 422.662 120.39Z" fill="#151515"/>
    <path d="M463.72 120.326C461.271 120.326 459.101 119.81 457.211 118.779C455.32 117.705 453.838 116.244 452.764 114.397C451.733 112.506 451.217 110.315 451.217 107.823V87.3943H455.922V106.857C455.922 109.735 456.738 112.012 458.371 113.688C460.003 115.321 462.194 116.137 464.944 116.137C466.877 116.137 468.596 115.707 470.1 114.848C471.646 113.946 472.892 112.7 473.837 111.11V87.3943H478.606V119.681H473.837V115.944C471.303 118.865 467.93 120.326 463.72 120.326Z" fill="#151515"/>
    <path d="M488.069 133.473C487.467 133.473 486.887 133.43 486.329 133.344C485.813 133.301 485.383 133.236 485.04 133.15V128.833C485.77 129.004 486.672 129.09 487.746 129.09C490.582 129.09 492.73 127.415 494.191 124.064L496.124 119.617L482.978 87.3943H488.262L498.702 113.881L509.98 87.3943H515.136L499.024 124.708C498.122 126.77 497.155 128.446 496.124 129.735C495.093 131.024 493.912 131.969 492.58 132.57C491.291 133.172 489.787 133.473 488.069 133.473Z" fill="#151515"/>
    <path d="M529.878 120.326C527.215 120.326 524.701 119.896 522.338 119.037C520.018 118.135 517.999 116.889 516.281 115.299L519.181 112.206C520.684 113.581 522.338 114.655 524.143 115.428C525.947 116.158 527.795 116.524 529.685 116.524C532.263 116.524 534.368 115.987 536.001 114.912C537.633 113.838 538.45 112.442 538.45 110.723C538.45 109.306 537.956 108.21 536.967 107.437C536.022 106.62 534.519 106.062 532.456 105.761L526.85 104.988C523.627 104.515 521.221 103.549 519.632 102.088C518.085 100.627 517.312 98.6508 517.312 96.1589C517.312 94.3544 517.827 92.7433 518.858 91.3255C519.889 89.9077 521.307 88.7906 523.112 87.9743C524.959 87.158 527.064 86.7499 529.427 86.7499C531.79 86.7499 534.003 87.0936 536.065 87.781C538.127 88.4684 540.147 89.5425 542.123 91.0033L539.61 94.2255C537.805 92.9796 536.044 92.0774 534.325 91.5188C532.65 90.9173 530.931 90.6166 529.17 90.6166C526.935 90.6166 525.131 91.1107 523.756 92.0988C522.381 93.087 521.694 94.3759 521.694 95.9655C521.694 97.4263 522.167 98.5434 523.112 99.3167C524.057 100.047 525.582 100.563 527.687 100.863L533.294 101.637C536.516 102.066 538.922 103.012 540.512 104.472C542.145 105.933 542.961 107.931 542.961 110.466C542.961 112.313 542.381 113.989 541.221 115.492C540.061 116.996 538.493 118.178 536.516 119.037C534.583 119.896 532.37 120.326 529.878 120.326Z" fill="#151515"/>
    <mask id="mask0_2_764" style="mask-type:alpha" maskUnits="userSpaceOnUse" x="0" y="0" width="113" height="130">
        <rect width="112.779" height="129.838" fill="#D9D9D9"/>
    </mask>
    <g mask="url(#mask0_2_764)">
        <rect width="112.779" height="129.838" fill="#EDEDED"/>
        <path d="M0 0H71.0792L36.9612 48.3338L0 84.3473V0Z" fill="#342F28"/>
        <path d="M60.1804 21.7971L94.2984 -0.000488281H112.779V129.838H70.1315L37.3354 58.8026L60.1804 21.7971Z" fill="#F37021"/>
        <rect x="106.858" y="-39.8059" width="20.8499" height="175.896" transform="rotate(44.5429 106.858 -39.8059)" fill="white"/>
        <rect x="98.6562" y="133.641" width="20.8499" height="101.088" transform="rotate(141.104 98.6562 133.641)" fill="white"/>
    </g>
</svg>
