<svg width="20" height="26" viewBox="0 0 20 26" fill="none" xmlns="http://www.w3.org/2000/svg">
    <path d="M13.941 7.20241C12.7078 7.36327 11.3941 7.4437 10 7.4437C8.63271 7.4437 7.29222 7.36327 6.05898 7.20241C3.19035 9.64209 0 13.7172 0 17.4169C0 23.2346 4.47721 25.9692 10 25.9692C15.5228 25.9692 20 23.2346 20 17.4169C20 13.6903 16.8097 9.64209 13.941 7.20241ZM10.7507 20.8753V21.9745C10.7507 22.0818 10.6702 22.189 10.5362 22.189H9.46381C9.35657 22.189 9.24933 22.1086 9.24933 21.9745V20.9021C8.17694 20.8217 7.29222 19.9906 7.18499 18.9182C7.18499 18.811 7.29222 18.7038 7.39946 18.7038H8.47185C8.57909 18.7038 8.65952 18.7574 8.68633 18.8646C8.73995 19.1863 9.06166 19.4276 9.38338 19.4276H10.3217C10.8847 19.4276 11.3941 19.0255 11.4477 18.4893C11.5281 17.8458 11.0188 17.3097 10.4021 17.3097H9.70509C8.39142 17.3097 7.2118 16.3445 7.07775 15.004C6.9437 13.6099 7.93566 12.4303 9.27614 12.2426V11.1702C9.27614 11.063 9.38338 10.9558 9.49062 10.9558H10.563C10.6702 10.9558 10.7775 11.0362 10.7775 11.1702V12.2426C11.8499 12.3231 12.7346 13.1542 12.8418 14.2265C12.8418 14.3338 12.7614 14.441 12.6273 14.441H11.555C11.4745 14.441 11.3673 14.3874 11.3405 14.2802C11.2601 13.9584 10.9651 13.7172 10.6166 13.7172H9.67828C9.11528 13.7172 8.63271 14.1193 8.55228 14.6555C8.49866 15.2989 8.98123 15.8351 9.59785 15.8351H10.4021C11.9035 15.8351 13.0831 17.0952 12.9223 18.6233C12.815 19.8029 11.8767 20.6877 10.7507 20.8753ZM10 5.86193C11.2869 5.86193 12.5201 5.7815 13.6461 5.64745C14.3968 4.03887 15.067 2.40349 15.067 1.67962C15.067 0.607239 13.6997 0.0442359 12.8954 1.19705C11.8231 2.69839 11.3405 0.5 10.1072 0.5C8.87399 0.5 8.23056 2.53753 7.26541 1.17024C6.3807 -0.0630026 4.90617 0.687668 4.90617 1.65281C4.90617 2.59115 5.52279 4.17292 6.21984 5.64745C7.37265 5.7815 8.65952 5.86193 10 5.86193Z" fill="#F37021"/>
</svg>
