<svg width="24" height="24" viewBox="0 0 24 24" fill="none" xmlns="http://www.w3.org/2000/svg">
    <path d="M17.9019 7.54178L17.9019 7.54181L17.907 7.54604C18.3412 7.90511 19.1182 8.54879 19.7391 9.26387C20.0499 9.62178 20.3038 9.97783 20.4575 10.3068C20.6124 10.6386 20.6405 10.8879 20.5901 11.0699C20.5505 11.2046 20.4508 11.3198 20.2476 11.4353C20.0718 11.5351 19.876 11.6052 19.6527 11.6851C19.5989 11.7043 19.5436 11.7241 19.4865 11.745C18.3 12.1752 17.08 12.5156 15.8404 12.7664L15.8401 12.7664C15.3037 12.8752 14.5936 13.0159 14.0722 12.9433C13.8173 12.9078 13.7023 12.8329 13.6539 12.7713C13.6164 12.7234 13.5431 12.5864 13.6253 12.2188C13.6839 11.9616 13.8228 11.7016 14.021 11.4271C14.1827 11.2031 14.3645 10.9944 14.5537 10.7774C14.5997 10.7245 14.6462 10.6712 14.693 10.617L14.693 10.617L14.6952 10.6143C14.7675 10.5294 14.8396 10.4444 14.9116 10.3595C15.7671 9.35069 16.6121 8.35436 17.5891 7.56544L17.6798 7.57907L17.8073 7.52685C17.8301 7.51753 17.8469 7.51681 17.8568 7.51806C17.8616 7.51868 17.8669 7.51999 17.873 7.52272C17.8791 7.52543 17.8889 7.53078 17.9019 7.54178Z" stroke="#F6F3EC"/>
    <path d="M15.635 18.938L15.635 18.938C16.1015 19.7835 16.5858 20.6378 17.2391 21.1792C17.2403 21.1786 17.2414 21.178 17.2426 21.1774L17.3484 21.0715H17.5555C17.5595 21.0715 17.5633 21.0716 17.567 21.0716C18.1028 20.9769 18.7499 20.5901 19.3139 20.0289C19.8884 19.4572 20.2946 18.786 20.4017 18.2363C20.4496 17.9836 20.3849 17.7956 20.2327 17.6187C20.0624 17.4208 19.7785 17.237 19.4 17.0691C19.0276 16.904 18.6062 16.7723 18.1965 16.6557C18.0866 16.6245 17.9749 16.5936 17.8646 16.5632C17.5834 16.4856 17.3119 16.4107 17.1061 16.3384C17.1058 16.3383 17.1055 16.3382 17.1052 16.3381L17.2709 15.8664L15.635 18.938ZM15.635 18.938L15.6335 18.9353M15.635 18.938L15.6335 18.9353M15.6335 18.9353C15.5462 18.7793 15.4555 18.6239 15.3638 18.4666M15.6335 18.9353L15.3638 18.4666M15.3638 18.4666C15.1994 18.1847 15.0315 17.8969 14.8732 17.589M15.3638 18.4666L14.8732 17.589M14.8732 17.589C14.6304 17.1169 14.4545 16.6769 14.4055 16.2949L14.8732 17.589Z" stroke="#F6F3EC"/>
    <path d="M9.34243 23.6836C9.36168 23.6884 9.38104 23.698 9.4003 23.7077C10.0032 23.8957 11.1268 24.1996 11.7104 23.8138C12.134 23.5328 12.1624 23.0233 12.188 22.5629C12.191 22.5097 12.1939 22.457 12.1974 22.4055C12.2891 21.1806 12.3277 19.946 12.3421 18.7162L9.34243 23.6836ZM9.34243 23.6836C8.07413 23.4618 6.52605 22.8783 6.37653 21.7063C6.36201 21.5713 6.41515 21.4508 6.49711 21.3591M9.34243 23.6836L6.49711 21.3591M6.49711 21.3591C6.53573 21.2867 6.57424 21.2193 6.61769 21.1566C6.79215 20.9151 6.99139 20.6985 7.19253 20.4798C7.20829 20.4627 7.22407 20.4455 7.23985 20.4284M6.49711 21.3591L7.23985 20.4284M7.23985 20.4284C7.60633 19.8834 8.00184 19.3578 8.42135 18.8513L7.23985 20.4284ZM10.8787 17.0757L10.8794 17.0754C11.1892 16.947 11.3446 16.9716 11.4122 16.9975C11.4788 17.023 11.5594 17.0876 11.6379 17.2542C11.808 17.6149 11.847 18.1915 11.8421 18.711C11.8278 19.9345 11.7894 21.1575 11.6988 22.3682L11.6988 22.3682L11.6986 22.3716C11.694 22.4386 11.6905 22.5011 11.6871 22.5602C11.676 22.7552 11.6671 22.9122 11.6315 23.0649C11.5909 23.2393 11.5291 23.3339 11.4343 23.3969C11.2994 23.4859 11.0288 23.528 10.6219 23.4794C10.2547 23.4356 9.87472 23.3309 9.58417 23.2412C9.55446 23.2278 9.51166 23.2106 9.46433 23.1987L9.44658 23.1942L9.42856 23.1911C8.82514 23.0855 8.18254 22.8977 7.68665 22.6164C7.20326 22.3421 6.93844 22.0279 6.87849 21.6827L6.90994 21.6476L6.93827 21.5944C6.97224 21.5308 6.99959 21.4838 7.02612 21.4451C7.18181 21.2302 7.36078 21.0356 7.56518 20.8133C7.57936 20.7978 7.59366 20.7823 7.60809 20.7666L7.63366 20.7387L7.65475 20.7074C8.01137 20.1771 8.39682 19.6647 8.80639 19.1703C8.9362 19.0137 9.05965 18.8563 9.18373 18.6982C9.38239 18.4449 9.58266 18.1896 9.81321 17.9321C10.1768 17.5261 10.53 17.2196 10.8787 17.0757Z" stroke="#F6F3EC"/>
    <path d="M11.3024 11.0092L11.2864 10.9992L11.2593 10.968L11.2272 10.9417C9.06266 9.1622 6.94769 6.3953 5.86192 3.85413L5.8617 3.85363C5.68846 3.44941 5.67911 3.11562 5.75632 2.8319C5.83575 2.54 6.01865 2.25911 6.29642 1.99148C6.86144 1.44705 7.73845 1.03481 8.54818 0.768786L8.54841 0.76871C9.65604 0.404216 10.2414 0.451827 10.5696 0.667168C10.8988 0.883209 11.1638 1.39493 11.2752 2.50331C11.4616 4.4292 11.5476 6.36962 11.5332 8.30527L11.5332 8.30605C11.532 8.51518 11.5447 8.75102 11.557 8.98132C11.5579 8.99826 11.5588 9.01516 11.5598 9.03203C11.5733 9.28519 11.5859 9.5384 11.5844 9.7861C11.5815 10.3024 11.5154 10.6931 11.3583 10.9352L11.3076 11.0132L11.3024 11.0092Z" stroke="#F6F3EC"/>
    <path d="M10.1808 14.2693L10.1804 14.2678C10.1776 14.2549 10.1746 14.2468 10.1727 14.2425L10.101 14.202L10.0421 14.1308C9.36901 13.3167 8.38376 12.7049 7.39118 12.1335C7.24469 12.0497 7.09827 11.961 6.94899 11.8705C6.67622 11.7051 6.39393 11.534 6.08431 11.3772C5.6093 11.1368 5.20306 11.0054 4.8927 11.0266C4.31499 11.0692 3.89171 11.5884 3.63112 12.539C3.38203 13.4477 3.35741 14.517 3.40736 15.1466C3.40737 15.1467 3.40738 15.1468 3.40739 15.1469L10.1808 14.2693ZM10.1808 14.2693C10.2354 14.5114 10.1787 14.6187 10.0958 14.7084M10.1808 14.2693L10.0958 14.7084M10.0958 14.7084C9.97374 14.8404 9.76064 14.9591 9.42534 15.1121M10.0958 14.7084L9.42534 15.1121M9.42534 15.1121C8.28691 15.6248 7.08703 16.0363 5.87515 16.3785C5.87476 16.3786 5.87437 16.3787 5.87399 16.3788L6.00985 16.86L9.42534 15.1121Z" stroke="#F6F3EC"/>
</svg>
