<svg width="17" height="17" viewBox="0 0 17 17" fill="none" xmlns="http://www.w3.org/2000/svg">
    <path d="M15.7493 12.8903L12.2771 9.73334C12.113 9.58416 11.8973 9.5046 11.6756 9.51145C11.4539 9.5183 11.2436 9.61103 11.089 9.77007L9.04496 11.8722C8.55296 11.7782 7.56383 11.4699 6.54566 10.4543C5.5275 9.43523 5.21914 8.44355 5.12775 7.95496L7.22814 5.91009C7.38737 5.75559 7.48024 5.5452 7.48709 5.32345C7.49395 5.1017 7.41425 4.88598 7.26487 4.72194L4.10873 1.25061C3.95928 1.08606 3.75158 0.986246 3.52973 0.97237C3.30788 0.958495 3.08936 1.03165 2.92058 1.17629L1.06704 2.7659C0.919363 2.91411 0.83122 3.11137 0.81933 3.32025C0.806518 3.53379 0.562226 8.59217 4.48456 12.5162C7.90635 15.9371 12.1926 16.1874 13.373 16.1874C13.5456 16.1874 13.6515 16.1823 13.6797 16.1806C13.8885 16.1689 14.0857 16.0804 14.2332 15.932L15.8219 14.0776C15.9671 13.9094 16.0408 13.691 16.0273 13.4692C16.0137 13.2474 15.9139 13.0396 15.7493 12.8903Z" fill="#F37021"/>
</svg>
