<svg width="20" height="24" viewBox="0 0 20 24" fill="none" xmlns="http://www.w3.org/2000/svg">
<path d="M15.9019 7.54178L15.9018 7.54181L15.907 7.54604C16.3412 7.90511 17.1182 8.54879 17.7391 9.26387C18.0499 9.62178 18.3038 9.97783 18.4575 10.3068C18.6124 10.6386 18.6404 10.8879 18.59 11.0699C18.5505 11.2046 18.4508 11.3198 18.2476 11.4353C18.0718 11.5351 17.876 11.6052 17.6527 11.6851C17.5989 11.7043 17.5436 11.7241 17.4865 11.745C16.3 12.1752 15.0799 12.5156 13.8404 12.7664L13.8401 12.7664C13.3037 12.8752 12.5936 13.0159 12.0722 12.9433C11.8173 12.9078 11.7023 12.8329 11.6539 12.7713C11.6163 12.7234 11.5431 12.5864 11.6253 12.2188C11.6839 11.9616 11.8227 11.7016 12.0209 11.4271C12.1827 11.2031 12.3645 10.9944 12.5537 10.7774C12.5997 10.7245 12.6462 10.6712 12.6929 10.617L12.6929 10.617L12.6952 10.6143C12.7675 10.5294 12.8395 10.4444 12.9116 10.3595C13.7671 9.35069 14.6121 8.35436 15.5891 7.56544L15.6797 7.57907L15.8073 7.52685C15.8301 7.51753 15.8469 7.51681 15.8567 7.51806C15.8616 7.51868 15.8669 7.51999 15.873 7.52272C15.8791 7.52543 15.8889 7.53078 15.9019 7.54178Z" stroke="#F6F3EC"/>
<path d="M13.6349 18.938L13.6349 18.938C14.1014 19.7835 14.5857 20.6378 15.2391 21.1792C15.2402 21.1786 15.2414 21.178 15.2426 21.1774L15.3484 21.0715H15.5555C15.5594 21.0715 15.5633 21.0716 15.5669 21.0716C16.1028 20.9769 16.7499 20.5901 17.3139 20.0289C17.8884 19.4572 18.2945 18.786 18.4017 18.2363C18.4495 17.9836 18.3848 17.7956 18.2326 17.6187C18.0623 17.4208 17.7784 17.237 17.3999 17.0691C17.0276 16.904 16.6062 16.7723 16.1964 16.6557C16.0866 16.6245 15.9748 16.5936 15.8646 16.5632C15.5834 16.4856 15.3119 16.4107 15.106 16.3384C15.1057 16.3383 15.1054 16.3382 15.1051 16.3381L15.2709 15.8664L13.6349 18.938ZM13.6349 18.938L13.6335 18.9353M13.6349 18.938L13.6335 18.9353M13.6335 18.9353C13.5461 18.7793 13.4555 18.6239 13.3637 18.4666M13.6335 18.9353L13.3637 18.4666M13.3637 18.4666C13.1993 18.1847 13.0315 17.8969 12.8732 17.589M13.3637 18.4666L12.8732 17.589M12.8732 17.589C12.6304 17.1169 12.4545 16.6769 12.4054 16.2949L12.8732 17.589Z" stroke="#F6F3EC"/>
<path d="M7.34244 23.6836C7.3617 23.6884 7.38106 23.698 7.40031 23.7077C8.00322 23.8957 9.12684 24.1996 9.71038 23.8138C10.134 23.5328 10.1624 23.0233 10.188 22.5629C10.191 22.5097 10.1939 22.457 10.1974 22.4055C10.2891 21.1806 10.3277 19.946 10.3421 18.7162L7.34244 23.6836ZM7.34244 23.6836C6.07414 23.4618 4.52606 22.8783 4.37655 21.7063C4.36203 21.5713 4.41516 21.4508 4.49713 21.3591M7.34244 23.6836L4.49713 21.3591M4.49713 21.3591C4.53574 21.2867 4.57425 21.2193 4.61771 21.1566C4.79216 20.9151 4.99141 20.6985 5.19254 20.4798C5.20831 20.4627 5.22409 20.4455 5.23987 20.4284M4.49713 21.3591L5.23987 20.4284M5.23987 20.4284C5.60634 19.8834 6.00186 19.3578 6.42136 18.8513L5.23987 20.4284ZM8.87871 17.0757L8.87944 17.0754C9.18918 16.947 9.34458 16.9716 9.41219 16.9975C9.47887 17.023 9.55937 17.0876 9.63792 17.2542C9.80797 17.6149 9.84698 18.1915 9.84214 18.711C9.82779 19.9345 9.78941 21.1575 9.69883 22.3682L9.69882 22.3682L9.69859 22.3716C9.69404 22.4386 9.69048 22.5011 9.68712 22.5602C9.67604 22.7552 9.66712 22.9122 9.63154 23.0649C9.59087 23.2393 9.52915 23.3339 9.43431 23.3969C9.29937 23.4859 9.02886 23.528 8.62188 23.4794C8.25473 23.4356 7.87474 23.3309 7.58418 23.2412C7.55447 23.2278 7.51167 23.2106 7.46434 23.1987L7.4466 23.1942L7.42858 23.1911C6.82516 23.0855 6.18256 22.8977 5.68667 22.6164C5.20327 22.3421 4.93846 22.0279 4.8785 21.6827L4.90995 21.6476L4.93829 21.5944C4.97225 21.5308 4.99961 21.4838 5.02613 21.4451C5.18183 21.2302 5.36079 21.0356 5.5652 20.8133C5.57938 20.7978 5.59368 20.7823 5.6081 20.7666L5.63367 20.7387L5.65477 20.7074C6.01138 20.1771 6.39683 19.6647 6.80641 19.1703C6.93622 19.0137 7.05967 18.8563 7.18375 18.6982C7.38241 18.4449 7.58268 18.1896 7.81322 17.9321C8.17679 17.5261 8.53001 17.2196 8.87871 17.0757Z" stroke="#F6F3EC"/>
<path d="M9.30237 11.0092L9.28639 10.9992L9.25923 10.968L9.22717 10.9417C7.06263 9.1622 4.94766 6.3953 3.86189 3.85413L3.86167 3.85363C3.68843 3.44941 3.67908 3.11562 3.75629 2.8319C3.83572 2.54 4.01862 2.25911 4.29639 1.99148C4.86141 1.44705 5.73842 1.03481 6.54815 0.768786L6.54838 0.76871C7.65601 0.404216 8.24134 0.451827 8.56952 0.667168C8.89878 0.883209 9.16374 1.39493 9.27516 2.50331C9.46156 4.4292 9.54758 6.36962 9.53319 8.30527L9.53318 8.30605C9.53195 8.51518 9.54463 8.75102 9.557 8.98132C9.55791 8.99826 9.55882 9.01516 9.55972 9.03203C9.57325 9.28519 9.58582 9.5384 9.58441 9.7861C9.58147 10.3024 9.51536 10.6931 9.35823 10.9352L9.30756 11.0132L9.30237 11.0092Z" stroke="#F6F3EC"/>
<path d="M8.18075 14.2693L8.18042 14.2678C8.17755 14.2549 8.17456 14.2468 8.1727 14.2425L8.101 14.202L8.04211 14.1308C7.369 13.3167 6.38375 12.7049 5.39117 12.1335C5.24468 12.0497 5.09826 11.961 4.94898 11.8705C4.67622 11.7051 4.39392 11.534 4.08431 11.3772C3.60929 11.1368 3.20305 11.0054 2.8927 11.0266C2.31498 11.0692 1.8917 11.5884 1.63111 12.539C1.38203 13.4477 1.3574 14.517 1.40736 15.1466C1.40737 15.1467 1.40737 15.1468 1.40738 15.1469L8.18075 14.2693ZM8.18075 14.2693C8.23537 14.5114 8.17872 14.6187 8.0958 14.7084M8.18075 14.2693L8.0958 14.7084M8.0958 14.7084C7.97373 14.8404 7.76063 14.9591 7.42533 15.1121M8.0958 14.7084L7.42533 15.1121M7.42533 15.1121C6.2869 15.6248 5.08702 16.0363 3.87514 16.3785C3.87475 16.3786 3.87437 16.3787 3.87398 16.3788L4.00984 16.86L7.42533 15.1121Z" stroke="#F6F3EC"/>
</svg>
